<svg width="35" height="34" viewBox="0 0 35 34" fill="none" xmlns="http://www.w3.org/2000/svg">
<path fill-rule="evenodd" clip-rule="evenodd" d="M9.45564 29.855C10.1742 29.855 10.7582 30.4391 10.7582 31.1576C10.7582 31.8761 10.1742 32.4585 9.45564 32.4585C8.73711 32.4585 8.15479 31.8761 8.15479 31.1576C8.15479 30.4391 8.73711 29.855 9.45564 29.855Z" stroke="#008ECC" stroke-width="2.55404" stroke-linecap="round" stroke-linejoin="round"/>
<path fill-rule="evenodd" clip-rule="evenodd" d="M28.6151 29.855C29.3336 29.855 29.9176 30.4391 29.9176 31.1576C29.9176 31.8761 29.3336 32.4585 28.6151 32.4585C27.8965 32.4585 27.3125 31.8761 27.3125 31.1576C27.3125 30.4391 27.8965 29.855 28.6151 29.855Z" stroke="#008ECC" stroke-width="2.55404" stroke-linecap="round" stroke-linejoin="round"/>
<path d="M1.5 1.64087L5.0416 2.25384L6.68129 21.7888C6.8141 23.3808 8.1439 24.6034 9.74102 24.6034H28.3208C29.8464 24.6034 31.1404 23.483 31.3601 21.971L32.9759 10.8047C33.1752 9.42727 32.1076 8.19453 30.7165 8.19453H5.6103" stroke="#008ECC" stroke-width="2.55404" stroke-linecap="round" stroke-linejoin="round"/>
<path d="M20.8691 14.4877H25.5907" stroke="#008ECC" stroke-width="2.55404" stroke-linecap="round" stroke-linejoin="round"/>
</svg>
