<svg width="78" height="78" viewBox="0 0 78 78" fill="none" xmlns="http://www.w3.org/2000/svg">
<path d="M22.9743 69.1365C27.9068 71.7638 33.4114 73.1335 39 73.1242C57.8468 73.1242 73.125 57.846 73.125 38.9992C73.125 20.1525 57.8468 4.87426 39 4.87426C20.1533 4.87426 4.87504 20.1525 4.87504 38.9992C4.87504 44.8005 6.32129 50.2572 8.86928 55.0347C9.46377 56.1477 9.60357 57.4478 9.25928 58.6617L5.24879 72.757L19.3473 68.7497C20.5608 68.4044 21.8609 68.5431 22.9743 69.1365ZM39 77.9992C32.6109 78.0083 26.3182 76.441 20.6798 73.4362L5.17729 77.8465C4.48138 78.0441 3.74531 78.0524 3.04514 77.8704C2.34497 77.6884 1.7061 77.3228 1.19455 76.8112C0.683001 76.2997 0.317333 75.6608 0.135333 74.9606C-0.0466677 74.2604 -0.0383969 73.5244 0.15929 72.8285L4.56629 57.326C1.55935 51.6859 -0.0091076 45.3908 3.97826e-05 38.9992C3.97826e-05 17.4615 17.4623 -0.000732422 39 -0.000732422C60.5377 -0.000732422 78 17.4615 78 38.9992C78 60.537 60.5377 77.9992 39 77.9992ZM24.375 31.6867C24.375 31.0403 24.6318 30.4203 25.089 29.9632C25.5461 29.5061 26.1661 29.2492 26.8125 29.2492H51.1875C51.834 29.2492 52.454 29.5061 52.9111 29.9632C53.3682 30.4203 53.625 31.0403 53.625 31.6867C53.625 32.3332 53.3682 32.9532 52.9111 33.4103C52.454 33.8674 51.834 34.1242 51.1875 34.1242H26.8125C26.1661 34.1242 25.5461 33.8674 25.089 33.4103C24.6318 32.9532 24.375 32.3332 24.375 31.6867ZM24.375 46.3117C24.375 45.6653 24.6318 45.0453 25.089 44.5882C25.5461 44.131 26.1661 43.8742 26.8125 43.8742H41.4375C42.084 43.8742 42.704 44.131 43.1611 44.5882C43.6182 45.0453 43.875 45.6653 43.875 46.3117C43.875 46.9582 43.6182 47.5782 43.1611 48.0353C42.704 48.4924 42.084 48.7492 41.4375 48.7492H26.8125C26.1661 48.7492 25.5461 48.4924 25.089 48.0353C24.6318 47.5782 24.375 46.9582 24.375 46.3117Z" fill="white"/>
</svg>
