<svg width="1020" height="886" viewBox="0 0 1020 886" fill="none" xmlns="http://www.w3.org/2000/svg">
<path opacity="0.1" d="M190.121 598.275C190.121 598.275 152.051 517.445 215.411 467.455C278.771 417.465 162.561 366.715 204.501 304.625C246.441 242.535 389.001 292.865 385.411 177.845C381.821 62.8347 501.62 31.6846 541.16 66.4247C580.7 101.165 586.131 270.515 699.631 252.335C813.131 234.155 919.741 474.135 828.681 597.955L190.121 598.275Z" fill="#FFBE55"/>
<path opacity="0.33" d="M253.529 127.955H788.409V453.405H253.529V127.955Z" fill="#2A94F4"/>
<path d="M280.66 152.325H761.27V429.025H280.66V152.325Z" fill="#F7F7F7"/>
<path opacity="0.61" d="M280.66 152.325H761.27V156.835H280.66V152.325Z" fill="#2A94F4"/>
<path d="M231.561 537.865C231.561 537.865 219.271 552.015 217.011 554.265C215.151 556.125 212.501 556.805 209.971 557.515C209.161 557.745 208.101 558.575 207.211 559.275C206.491 559.835 206.161 560.715 206.181 561.625C206.471 577.545 220.331 588.715 221.071 587.775C222.401 586.095 221.391 581.425 218.741 578.355C216.071 575.255 215.431 570.895 216.621 566.985C217.571 563.875 219.301 561.065 221.651 558.815L232.341 548.815L231.561 537.865ZM357.191 557.985L366.971 574.325C369.96 579.322 371.06 585.226 370.071 590.965C369.937 591.719 369.969 592.493 370.162 593.234C370.356 593.975 370.708 594.665 371.193 595.258C371.678 595.85 372.286 596.331 372.974 596.667C373.662 597.003 374.415 597.186 375.181 597.205C385.711 597.465 406.071 597.845 406.661 596.885C409.651 592.005 396.771 589.815 386.651 586.385C379.831 584.075 371.431 565.605 366.111 551.065L358.131 556.115C357.511 556.535 357.161 557.245 357.191 557.985Z" fill="#FA968C"/>
<path d="M386.449 592.015C390.769 592.015 395.179 591.025 399.259 590.215C399.729 590.125 400.209 590.155 400.659 590.315C405.379 591.985 408.239 594.295 406.649 596.885C406.009 597.925 382.049 597.385 372.699 597.135C370.739 597.085 369.309 595.305 369.649 593.375L370.259 589.865C375.549 591.215 380.969 592.015 386.449 592.015ZM322.209 373.485C311.399 371.325 298.489 380.175 295.709 394.085C294.109 402.075 291.749 431.865 292.089 456.165C292.219 465.495 287.739 474.465 279.769 479.315C278.469 480.105 277.279 480.975 276.249 481.915C270.919 486.785 246.109 517.875 230.559 538.975C230.069 542.275 230.559 546.835 232.409 549.005C252.309 533.415 286.049 504.055 291.729 498.875C294.879 495.995 298.399 492.625 301.269 489.315C313.489 481.125 333.339 418.575 335.919 405.665C338.689 391.755 333.019 375.655 322.209 373.485Z" fill="#0B4870"/>
<path d="M315.46 304.975C324.744 304.975 332.27 295.264 332.27 283.285C332.27 271.306 324.744 261.595 315.46 261.595C306.176 261.595 298.65 271.306 298.65 283.285C298.65 295.264 306.176 304.975 315.46 304.975Z" fill="#0B4870"/>
<path d="M311.431 285.525C311.161 273.515 301.441 263.425 289.451 262.745C278.811 262.135 269.631 268.655 266.191 277.955C264.991 281.215 261.791 283.335 258.311 283.285C256.871 283.265 255.381 283.395 253.871 283.705C245.081 285.505 238.261 292.925 237.341 301.845C236.511 309.895 240.271 317.115 246.321 321.235C248.901 322.995 250.371 325.905 250.801 328.995C252.781 343.305 265.851 353.815 280.751 352.185C293.501 350.785 303.701 340.295 304.781 327.525C305.451 319.685 302.751 312.495 298.021 307.165C306.101 303.345 311.641 295.085 311.431 285.525ZM315.461 254.485C315.461 254.485 324.921 260.435 323.771 268.455C323.771 268.455 328.821 264.875 329.971 252.555C330.761 244.015 315.461 254.485 315.461 254.485Z" fill="#0B4870"/>
<path d="M334.78 303.355C334.65 307.345 334.93 311.405 335.57 315.355C336.19 319.295 337.23 323.185 338.74 326.555C339.49 328.235 340.36 329.775 341.3 330.955C342.24 332.155 343.2 332.855 343.83 333.095C344.16 333.225 344.44 333.285 344.84 333.265C345.23 333.235 345.74 333.125 346.32 332.845C347.49 332.265 348.87 331.205 350.13 329.825C352.69 327.075 354.95 323.495 356.92 319.745C358.91 315.985 360.67 312.005 362.31 307.955C363.95 303.895 365.42 299.745 366.83 295.555C368.24 291.365 369.56 287.125 370.8 282.855V282.845C370.875 282.592 370.998 282.356 371.163 282.151C371.328 281.946 371.532 281.775 371.764 281.649C371.995 281.523 372.249 281.443 372.511 281.415C372.773 281.387 373.038 281.41 373.29 281.485C374.27 281.775 374.87 282.745 374.71 283.735C373.27 292.605 371.55 301.465 369.08 310.255C367.86 314.655 366.45 319.025 364.67 323.355C362.89 327.685 360.82 331.995 357.71 336.155C356.13 338.215 354.23 340.275 351.55 341.965C350.2 342.795 348.6 343.505 346.8 343.895C345.01 344.285 343.02 344.285 341.18 343.875C339.34 343.475 337.69 342.705 336.28 341.805C334.88 340.905 333.68 339.875 332.66 338.815C330.61 336.675 329.09 334.405 327.83 332.105C325.34 327.495 323.75 322.765 322.61 317.975C321.51 313.175 320.91 308.305 320.77 303.375V303.345C320.718 301.488 321.404 299.687 322.68 298.337C323.955 296.986 325.714 296.198 327.57 296.145C329.427 296.092 331.228 296.779 332.578 298.054C333.929 299.329 334.717 301.088 334.77 302.945C334.79 303.065 334.79 303.225 334.78 303.355Z" fill="#FAB9AF"/>
<path d="M326.051 344.915C329.841 333.505 337.451 309.355 336.801 301.455C336.599 299.017 335.487 296.745 333.686 295.09C331.885 293.435 329.527 292.519 327.081 292.525H294.151C288.691 292.525 284.221 296.855 284.071 302.315C283.791 311.855 288.191 333.555 290.661 344.915H326.051ZM319.561 396.415C323.351 410.085 354.131 507.285 343.511 510.225C332.891 513.165 275.071 418.265 274.331 404.095C273.631 390.655 281.421 376.095 292.041 373.155C302.671 370.225 315.781 382.745 319.561 396.415Z" fill="#FAB9AF"/>
<path d="M367.171 554.945C367.561 554.485 367.651 553.835 367.451 553.265C359.221 530.475 348.171 501.615 345.811 496.165C345.541 495.545 345.261 494.935 344.961 494.345C340.941 465.525 322.451 406.825 319.571 396.425C315.781 382.755 302.681 370.235 292.051 373.175C281.431 376.115 273.641 390.675 274.341 404.115C274.801 412.985 297.621 453.475 317.241 481.815C321.371 487.775 323.961 494.625 325.221 501.775C326.091 506.715 327.491 511.645 329.051 515.245C331.371 520.615 344.971 541.095 357.131 558.465C357.481 558.965 358.071 559.265 358.681 559.205C361.901 558.855 364.951 557.555 367.171 554.945Z" fill="#0B4870"/>
<path d="M286.891 359.375C288.591 354.595 289.111 349.475 288.391 344.445C286.731 332.775 283.831 310.795 284.091 301.465C284.231 296.475 288.321 292.525 293.311 292.525H298.191C300.051 296.835 303.991 300.165 310.121 300.165C316.241 300.165 320.181 296.835 322.041 292.525H326.621C321.641 303.195 323.431 317.265 332.001 325.475C330.411 331.105 329.071 336.775 328.071 341.365C326.716 347.585 327.306 354.071 329.761 359.945C333.971 370.045 337.301 386.245 336.311 392.655C301.671 402.475 277.721 385.095 277.721 385.095L286.891 359.375Z" fill="#FFBE55"/>
<path d="M315.459 294.795L300.529 293.225L305.249 276.885L314.909 278.075L315.459 294.795Z" fill="#FAB9AF"/>
<path d="M314.91 278.075L305.25 276.875L303.77 281.975C305.93 284.415 308.71 289.685 312.23 289.685C313.35 289.685 314.36 289.375 315.28 288.795L314.91 278.075Z" fill="#FA968C"/>
<path d="M315.251 285.975C311.971 285.975 308.421 284.335 303.531 280.065C300.721 277.615 298.641 273.335 298.641 270.455V254.485H323.231C323.231 254.485 325.081 262.965 323.281 271.385C321.951 277.695 317.831 285.985 315.251 285.975Z" fill="#FAB9AF"/>
<path d="M302.819 267.435C302.819 270.555 301.329 273.075 299.489 273.075C297.649 273.075 295.619 268.995 295.619 265.875C295.619 262.755 297.649 261.795 299.489 261.795C301.319 261.785 302.819 264.315 302.819 267.435Z" fill="#FAB9AF"/>
<path d="M295.619 256.415C295.619 251.425 299.659 247.385 304.649 247.385H312.949C315.319 247.385 317.629 246.765 319.649 245.615C322.579 243.955 326.279 244.505 328.279 247.215C330.439 250.145 331.369 254.065 325.899 257.695C323.179 259.505 319.199 257.505 316.549 258.365C316.389 258.355 316.239 258.335 316.069 258.335H308.749C306.209 258.335 304.259 260.415 304.189 262.955C304.167 263.731 303.844 264.467 303.287 265.009C302.731 265.55 301.985 265.854 301.209 265.855H300.879L299.709 262.105L295.629 267.615V256.415H295.619Z" fill="#0B4870"/>
<path d="M376.421 274.055C376.421 274.055 378.141 282.545 375.721 283.925C373.301 285.305 371.431 285.795 369.281 282.355C367.131 278.915 365.831 273.165 365.741 269.565C365.651 265.965 368.041 259.865 368.731 259.375C371.231 257.615 370.711 264.155 370.621 267.335C370.521 270.515 370.731 274.115 372.271 273.735C373.811 273.345 373.541 267.245 375.161 266.215C376.791 265.185 376.421 274.055 376.421 274.055Z" fill="#FAB9AF"/>
<path d="M321.409 254.205C320.589 257.855 321.799 259.845 309.839 265.545C297.879 271.245 294.089 268.805 290.359 274.935C290.359 274.935 291.989 264.775 298.599 261.295C305.209 257.805 316.659 255.535 320.339 247.455C320.329 247.455 321.969 251.705 321.409 254.205Z" fill="#0B4870"/>
<path d="M319.11 254.885C319.11 254.885 319.56 267.175 330.3 273.075C330.3 273.075 325.57 263.785 325.89 257.715C326.21 251.635 318.4 250.685 319.11 254.885Z" fill="#0B4870"/>
<path d="M646 193.275H644V188.275H639V186.275H646V193.275ZM646 330.515H644V319.075H646V330.515ZM646 307.645H644V296.205H646V307.645ZM646 284.775H644V273.335H646V284.775ZM646 261.895H644V250.455H646V261.895ZM646 239.025H644V227.585H646V239.025ZM646 216.145H644V204.705H646V216.145ZM646 348.955H639V346.955H644V341.955H646V348.955ZM627 348.955H615V346.955H627V348.955ZM603 348.955H591V346.955H603V348.955ZM579 348.955H567V346.955H579V348.955ZM555 348.955H543V346.955H555V348.955ZM531 348.955H519V346.955H531V348.955ZM507 348.955H495V346.955H507V348.955ZM483 348.955H471V346.955H483V348.955ZM459 348.955H447V346.955H459V348.955ZM435 348.955H423V346.955H435V348.955ZM411 348.955H404V341.955H406V346.955H411V348.955ZM406 330.495H404V319.035H406V330.495ZM406 307.575H404V296.115H406V307.575ZM406 284.645H404V273.185H406V284.645ZM406 261.725H404V250.265H406V261.725ZM406 238.805H404V227.345H406V238.805ZM406 215.875H404V204.415H406V215.875ZM406 192.955H404V185.955L411 185.965V187.965L406 187.955V192.955ZM627 188.265L615 188.245V186.245L627 186.265V188.265ZM603 188.235L591 188.215V186.215L603 186.235V188.235ZM579 188.205L567 188.185V186.185L579 186.205V188.205ZM555 188.165L543 188.145V186.145L555 186.165V188.165ZM531 188.135L519 188.115V186.115L531 186.135V188.135ZM507 188.095L495 188.075V186.075L507 186.095V188.095ZM483 188.065L471 188.045V186.045L483 186.065V188.065ZM459 188.035L447 188.015V186.015L459 186.035V188.035ZM435 187.995L423 187.975V185.975L435 185.995V187.995Z" fill="#D3D3D3"/>
<path d="M201.051 564.355C200.651 563.355 201.031 562.205 201.961 561.655C202.721 561.205 204.761 559.945 206.291 559.005C206.961 558.595 207.791 559.035 207.881 559.805C208.871 568.605 212.861 576.575 220.341 580.375C222.291 582.975 222.571 587.435 221.521 588.765C221.271 589.075 217.771 587.915 214.831 584.555C201.781 569.595 201.051 564.355 201.051 564.355Z" fill="#0B4870"/>
<path d="M370 168.955H623V334.955H370V168.955Z" fill="#FFBE55"/>
<path opacity="0.78" d="M378 178.955H614V298.955H378V178.955Z" fill="#F7F7F7"/>
<path d="M526 270.955C526 291.945 506.99 288.955 486 288.955C465.01 288.955 450 291.945 450 270.955C450 249.965 467.01 232.955 488 232.955C508.99 232.955 526 249.965 526 270.955Z" fill="#FFBE55"/>
<path d="M378 299.125L438 247.955L491 298.955L378 299.125Z" fill="#FFBE55"/>
<path d="M448.74 299.125L536.49 222.955L614 298.875L448.74 299.125Z" fill="#FFBE55"/>
<path d="M378 298.955H613.79V321.955H378V298.955Z" fill="#0E538C"/>
<path d="M413.111 330.795C413.111 330.795 404.561 329.395 403.271 331.865C401.981 334.335 401.561 336.225 405.091 338.235C408.611 340.245 414.401 341.335 418.011 341.285C421.611 341.245 427.621 338.615 428.081 337.905C429.751 335.335 423.231 336.105 420.051 336.325C416.881 336.545 413.271 336.475 413.601 334.915C413.931 333.355 420.041 333.395 421.001 331.735C421.951 330.095 413.111 330.795 413.111 330.795Z" fill="#FAB9AF"/>
<path d="M297.43 301.275L297.41 301.155C297.41 301.145 297.42 301.175 297.42 301.185L297.44 301.255L297.51 301.515L297.69 302.125C297.84 302.565 298 303.015 298.2 303.485C298.57 304.415 299.03 305.365 299.57 306.295C300.63 308.155 301.96 309.945 303.46 311.635C306.52 314.985 310.25 317.985 314.47 320.425C318.67 322.905 323.279 324.925 328.079 326.595C332.909 328.235 337.92 329.505 343.03 330.575C353.28 332.605 363.889 333.515 374.579 333.925L378.59 334.065L382.609 334.085L386.64 334.095C387.98 334.105 389.33 334.035 390.67 334.025C393.36 333.955 396.06 333.985 398.76 333.825C401.45 333.685 404.159 333.585 406.859 333.485H406.91C408.02 333.445 408.95 334.305 408.99 335.415C409.03 336.425 408.319 337.285 407.359 337.465C401.989 338.475 396.59 339.415 391.15 340.155C388.44 340.595 385.7 340.835 382.96 341.125L378.85 341.545L374.72 341.845L370.59 342.145L366.44 342.295C365.05 342.335 363.67 342.395 362.28 342.405L358.109 342.375C352.539 342.375 346.95 341.955 341.34 341.365C335.73 340.695 330.12 339.665 324.54 338.195C318.97 336.685 313.45 334.635 308.13 331.885C302.82 329.145 297.759 325.535 293.359 320.995C291.189 318.695 289.22 316.135 287.53 313.315C286.69 311.905 285.92 310.425 285.26 308.845C284.93 308.065 284.63 307.235 284.35 306.395C284.22 305.945 284.08 305.525 283.96 305.055C283.83 304.525 283.74 304.235 283.59 303.315C283.321 301.478 283.792 299.61 284.9 298.121C286.009 296.632 287.663 295.644 289.5 295.375C293.32 294.795 296.87 297.445 297.43 301.275Z" fill="#FAB9AF"/>
<path d="M625.5 407.955H424.5C413.18 407.955 404 398.775 404 387.455C404 376.135 413.18 366.955 424.5 366.955H625.5C636.82 366.955 646 376.135 646 387.455C646 398.775 636.82 407.955 625.5 407.955Z" fill="#FFBE55"/>
<path d="M721.7 193.995C712.24 193.985 702.78 194.235 693.33 193.915C682.41 193.545 674.13 188.315 668.42 179.005C664.82 173.135 663.54 166.615 664.49 159.975C666.27 147.535 675.03 137.325 688.36 134.455C690.25 134.045 692.16 133.835 694.07 133.995C695.79 134.135 696.35 133.545 696.28 131.795C695.97 124.525 698.18 118.015 702.69 112.345C707.9 105.805 714.6 101.935 723.05 101.155C735.28 100.015 744.67 104.705 751.54 114.725C752.26 115.775 752.67 115.855 753.8 115.075C768.38 104.985 789.68 111.685 795.98 128.275C796.23 128.925 796.55 129.545 796.75 130.195C797.93 133.925 797.93 133.925 801.68 133.975C811.97 134.105 823.38 142.125 827.25 151.955C827.61 152.875 827.9 153.825 828.22 154.765C827.25 154.845 826.78 155.465 826.42 156.295C825.08 159.345 822.95 161.905 820.73 164.275C813.92 171.565 805.46 176.395 796.31 180.115C792.13 181.815 787.82 183.035 783.45 184.165C777.76 185.635 772.05 186.935 766.29 188.045C760.29 182.095 754.28 176.155 748.3 170.185C747.51 169.395 747 168.885 745.94 169.965C738.18 177.855 730.36 185.675 722.55 193.515C722.27 193.675 721.98 193.835 721.7 193.995ZM736.89 107.405C735.99 106.505 735.26 106.845 734.61 106.735C723.26 104.665 714.14 108.735 706.88 117.235C704.94 119.505 703.4 122.315 702.36 125.125C701.09 128.545 700.5 132.225 700.86 135.955C701.01 137.515 700.36 138.185 698.74 138.155C691.11 138.015 684.61 140.765 679.03 145.905C675.575 149.076 672.954 153.05 671.4 157.475C669.7 162.275 669.32 167.365 670.43 172.395C670.97 174.845 671.28 177.475 673.07 179.505C673.82 179.105 673.6 178.505 673.6 178.005C673.65 174.945 673.6 171.895 674.04 168.835C675.23 160.505 678.54 153.375 685.79 148.745C691.03 145.405 696.96 143.875 703.23 144.175C705.26 144.275 706.02 143.775 705.98 141.545C705.84 133.065 707.88 125.135 713.3 118.455C716.86 114.055 721.46 110.985 727.06 109.475C730.2 108.625 733.38 108.005 736.89 107.405Z" fill="#2A94F4"/>
<path d="M772.319 193.985C772.029 193.835 771.749 193.695 771.459 193.545C769.729 191.715 768.009 189.875 766.279 188.045C772.039 186.935 777.759 185.635 783.439 184.165C787.809 183.035 792.119 181.815 796.299 180.115C805.459 176.395 813.919 171.565 820.719 164.275C822.939 161.895 825.069 159.345 826.409 156.295C826.779 155.465 827.239 154.835 828.209 154.765C831.409 165.145 829.549 174.585 822.799 183.045C818.539 188.395 812.939 191.715 806.289 193.185C804.139 193.655 801.909 193.935 799.719 193.955C790.599 194.035 781.459 193.985 772.319 193.985Z" fill="#2A94F4"/>
<path d="M764.189 200.945C764.189 200.645 764.309 200.535 764.599 200.645C764.459 200.755 764.329 200.855 764.189 200.945ZM778.369 200.425C778.429 200.445 778.489 200.465 778.529 200.505C778.559 200.525 778.549 200.585 778.559 200.625C778.499 200.555 778.449 200.475 778.389 200.405C778.389 200.415 778.369 200.425 778.369 200.425Z" fill="#F7F7F7"/>
<path d="M721.701 193.995C721.981 193.835 722.261 193.675 722.551 193.525C723.151 194.225 723.971 193.965 724.711 193.965C739.571 193.985 754.441 193.985 769.301 193.965C770.041 193.965 770.851 194.215 771.471 193.555C771.761 193.705 772.041 193.845 772.331 193.995L778.381 200.435L778.401 200.415L764.611 200.655C764.321 200.535 764.191 200.655 764.201 200.955C764.141 202.955 764.071 204.955 764.011 206.945C762.561 208.365 762.811 210.395 762.351 212.115C760.241 219.955 756.631 226.825 750.821 232.585C749.071 234.315 746.721 235.215 745.231 237.185C740.621 237.225 736.011 237.225 731.411 237.325C729.591 237.365 729.981 236.155 729.981 235.145C729.971 224.465 729.921 213.775 730.021 203.095C730.041 201.065 729.531 200.455 727.481 200.545C723.661 200.715 719.831 200.595 715.551 200.595C717.791 198.175 719.741 196.085 721.701 193.995Z" fill="#FFBE55"/>
<path d="M745.211 237.185C746.701 235.215 749.051 234.315 750.801 232.585C756.611 226.815 760.231 219.955 762.331 212.115C762.791 210.395 762.541 208.365 763.991 206.945V235.995C763.501 237.275 762.111 236.575 761.321 237.195C755.961 237.195 750.591 237.185 745.211 237.185Z" fill="#FFBE55"/>
<path d="M761.339 237.195C762.129 236.575 763.519 237.275 764.009 235.995C764.069 238.525 762.309 236.975 761.339 237.195ZM766.279 188.045C768.009 189.875 769.729 191.715 771.459 193.545C770.839 194.205 770.019 193.955 769.289 193.955C754.429 193.965 739.559 193.965 724.699 193.955C723.969 193.955 723.149 194.215 722.539 193.515C730.339 185.675 738.169 177.855 745.929 169.965C746.989 168.885 747.499 169.395 748.289 170.185C754.279 176.155 760.279 182.095 766.279 188.045Z" fill="#FFBE55"/>
<path d="M736.89 107.405C733.38 108.005 730.21 108.625 727.06 109.475C721.46 110.985 716.86 114.065 713.3 118.455C707.89 125.135 705.84 133.065 705.98 141.545C706.02 143.775 705.26 144.265 703.23 144.175C696.96 143.875 691.03 145.405 685.79 148.745C678.54 153.375 675.22 160.505 674.04 168.835C673.6 171.895 673.65 174.945 673.6 178.005C673.59 178.495 673.82 179.105 673.07 179.505C671.28 177.475 670.97 174.855 670.43 172.395C669.32 167.365 669.7 162.275 671.4 157.475C672.96 153.065 675.52 149.145 679.03 145.905C684.61 140.765 691.11 138.015 698.74 138.155C700.36 138.185 701.01 137.515 700.86 135.955C700.5 132.225 701.1 128.545 702.36 125.125C703.4 122.315 704.94 119.505 706.88 117.235C714.15 108.725 723.26 104.655 734.61 106.735C735.26 106.845 735.99 106.505 736.89 107.405Z" fill="#2A94F4"/>
<path d="M618 393.955H435C431.69 393.955 429 391.265 429 387.955C429 384.645 431.69 381.955 435 381.955H618C621.31 381.955 624 384.645 624 387.955C624 391.265 621.31 393.955 618 393.955ZM858.5 624.955H162.5C155.04 624.955 149 618.915 149 611.455C149 603.995 155.04 597.955 162.5 597.955H858.5C865.96 597.955 872 603.995 872 611.455C872 618.915 865.96 624.955 858.5 624.955Z" fill="#F7F7F7"/>
<path d="M743.68 557.255C755.245 557.255 764.62 547.879 764.62 536.315C764.62 524.75 755.245 515.375 743.68 515.375C732.115 515.375 722.74 524.75 722.74 536.315C722.74 547.879 732.115 557.255 743.68 557.255Z" fill="#FFBE55"/>
<path opacity="0.4" d="M791.01 475.865L823.367 497.761L801.471 530.119L769.114 508.223L791.01 475.865Z" fill="#2A94F4"/>
<path d="M814.68 453.785L853.54 457.795L849.53 496.665" fill="#0B4870"/>
</svg>
